<?xml version="1.0" encoding="iso-8859-1"?>
<!-- Generator: Adobe Illustrator 16.0.0, SVG Export Plug-In . SVG Version: 6.00 Build 0)  -->
<!DOCTYPE svg PUBLIC "-//W3C//DTD SVG 1.1//EN" "http://www.w3.org/Graphics/SVG/1.1/DTD/svg11.dtd">
<svg version="1.1" id="Capa_1" xmlns="http://www.w3.org/2000/svg" xmlns:xlink="http://www.w3.org/1999/xlink" x="0px" y="0px"
	 width="612.039px" height="612.039px" viewBox="0 0 612.039 612.039" style="enable-background:new 0 0 612.039 612.039;"
	 xml:space="preserve">
<g>
	<g>
		<g>
			<g>
				<path d="M336.64,546.804l-4.852-2.811l2.561-0.693c1.982-0.539,3.234-2.311,3.234-4.256c0-0.385-0.039-0.654-0.077-0.789
					l-1.732-6.545c-0.521-1.965-2.291-3.234-4.255-3.234c-0.154,0-0.559,0-1.136,0.135l0,0l-17.192,4.639l-8.952-5.139l8.914-5.16
					l17.23,4.602c0.404,0.115,0.789,0.135,1.136,0.135c1.964-0.02,3.677-1.271,4.255-3.234l1.655-6.219
					c0.115-0.424,0.192-0.809,0.154-1.137c0-2.002-1.271-3.658-3.234-4.254l-2.561-0.654l4.852-2.811
					c1.463-0.828,2.252-2.33,2.214-3.832c0-0.73-0.154-1.443-0.559-2.156l-3.234-5.564c-0.827-1.424-2.291-2.213-3.754-2.193
					c-0.712,0-1.54,0.154-2.406,0.693l-4.659,2.713l0.674-2.541c0.077-0.48,0.154-0.789,0.154-1.135
					c0-1.906-1.194-3.697-3.312-4.236l-6.161-1.674c-0.27-0.059-0.674-0.154-1.136-0.154c-1.925-0.02-3.754,1.27-4.254,3.369
					l-4.621,17.135l-8.875,5.139v-9.51l12.591-12.609c0.866-0.906,1.232-2.002,1.232-3.08c0-1.098-0.386-2.195-1.232-3.062
					l-4.543-4.582c-0.828-0.828-2.002-1.27-3.119-1.27c-1.098,0-2.291,0.404-3.196,1.367l-1.732,1.77v-6.43
					c-0.039-2.445-1.964-4.35-4.409-4.369h-6.411c-2.445,0.037-4.332,1.906-4.409,4.369v6.43l-1.848-1.867
					c-0.828-0.828-1.963-1.27-3.08-1.27c-1.136,0-2.291,0.404-3.157,1.367l-4.505,4.465c-0.828,0.848-1.271,1.965-1.271,3.062
					c0,0.693,0.154,1.365,0.481,1.982c-0.789-1.213-2.214-1.982-3.677-1.982c-0.27,0.02-0.712,0-1.463,0.27l-5.833,1.578
					c-2.021,0.48-3.273,2.291-3.273,4.234c-0.039,0.232,0.039,0.809,0.193,1.348l0.635,2.291l-5.564-3.195
					c-0.635-0.365-1.425-0.615-2.214-0.596c-1.463-0.02-3.003,0.75-3.792,2.271l-3.234,5.486c-0.347,0.674-0.559,1.406-0.559,2.156
					c0,1.482,0.751,3.004,2.176,3.793l5.602,3.234l-2.561,0.693c-1.983,0.52-3.234,2.291-3.234,4.234c0,0.27,0,0.693,0.154,1.213
					l1.656,6.123c0.52,1.963,2.252,3.215,4.254,3.234c0.404,0,0.674-0.078,0.828-0.078l17.48-4.697l8.278,4.775l-8.278,4.734
					l-17.192-4.6c-0.27-0.078-0.635-0.135-1.136-0.135c-2.002,0-3.754,1.23-4.255,3.33l-1.694,6.104
					c-0.077,0.307-0.116,0.674-0.116,1.154c-0.039,1.887,1.271,3.695,3.234,4.217l2.561,0.691l-5.564,3.197
					c-1.425,0.809-2.214,2.328-2.214,3.811c0,0.617,0.192,1.445,0.558,2.156l3.234,5.584c0.828,1.424,2.33,2.195,3.793,2.176
					c0.75,0.02,1.501-0.213,2.06-0.5l5.718-3.293l-0.673,2.541c-0.077,0.23-0.154,0.617-0.154,1.137
					c-0.039,1.887,1.251,3.695,3.196,4.234l6.238,1.656c0.481,0.135,0.866,0.154,1.136,0.154c1.964,0,3.716-1.271,4.255-3.215
					l4.582-17.213l8.24-4.754v10.318l-12.591,12.572c-0.828,0.865-1.29,1.982-1.29,3.1c0,1.059,0.443,2.213,1.271,3.041l4.582,4.582
					c0.828,0.867,1.964,1.291,3.081,1.291c1.136,0,2.252-0.443,3.042-1.232l1.887-1.926v5.641c0.077,2.484,1.925,4.352,4.409,4.391
					h6.43c2.445-0.02,4.37-1.965,4.409-4.391v-5.621l1.848,1.848c0.828,0.867,2.002,1.291,3.081,1.291
					c1.174,0,2.252-0.443,3.042-1.232l4.583-4.582c0.904-0.924,1.271-2.021,1.271-3.08c0-1.117-0.386-2.215-1.232-3.08
					l-12.591-12.611v-10.318l8.875,5.178l4.621,17.193c0.558,1.982,2.291,3.234,4.254,3.254c0.404,0,0.713-0.078,0.828-0.078
					l6.546-1.732c2.021-0.559,3.234-2.387,3.234-4.273c0-0.404-0.077-0.693-0.116-0.924l-0.75-2.734l4.89,2.791
					c0.712,0.424,1.502,0.617,2.214,0.598c1.54,0,2.927-0.789,3.716-2.156l3.272-5.604c0.404-0.711,0.597-1.463,0.559-2.156
					C338.854,549.075,338.103,547.612,336.64,546.804L336.64,546.804z M281.482,514.921l-8.24-4.734l-4.582-17.211
					c-0.077-0.309-0.192-0.578-0.327-0.848c0.154,0.25,0.327,0.443,0.559,0.654l12.59,12.629V514.921z"/>
			</g>
			<path d="M233.623,381.103c0-0.887-0.231-1.811-0.712-2.715l-6.315-10.916c-0.981-1.715-2.811-2.676-4.659-2.676
				c-0.866,0-1.887,0.211-2.772,0.789l-16.171,9.318l3.311-12.457c0.116-0.5,0.193-0.963,0.193-1.387
				c0-2.367-1.579-4.543-4.024-5.217l-12.187-3.273c-0.423-0.076-0.905-0.191-1.386-0.191c-2.406,0-4.543,1.598-5.198,4.023
				l-9.395,35.076L150.8,405.013v-25.547l25.644-25.701c1.098-1.041,1.617-2.445,1.617-3.793c0-1.367-0.52-2.793-1.617-3.832
				l-8.914-8.895c-1.02-1.059-2.445-1.598-3.754-1.598c-1.386,0-2.83,0.52-3.87,1.656l-9.106,9.068v-20.389
				c0-2.965-2.406-5.352-5.41-5.371h-12.629c-2.965,0.02-5.371,2.406-5.371,5.371v20.389l-9.145-9.127
				c-1.059-1.059-2.445-1.598-3.793-1.598s-2.792,0.539-3.87,1.656l-8.875,8.875c-1.059,1.059-1.579,2.445-1.579,3.793
				s0.52,2.771,1.54,3.793l25.682,25.701v25.547l-22.14-12.764l-9.356-35.078c-0.635-2.406-2.753-3.984-5.236-3.984
				c-0.366,0-0.982,0.02-1.656,0.27l-11.917,3.156c-2.368,0.674-3.985,2.812-3.985,5.219c0,0.404,0.039,0.98,0.27,1.539
				l3.273,12.342l-17.692-10.186c-0.828-0.48-1.771-0.73-2.676-0.73c-1.81,0-3.677,0.924-4.697,2.752l-6.276,10.859
				c-0.52,0.846-0.712,1.77-0.712,2.693c-0.039,1.869,0.943,3.678,2.676,4.66l17.673,10.184l-12.476,3.35
				c-2.406,0.693-3.985,2.83-4.023,5.219c0,0.441,0.077,0.961,0.27,1.598l3.234,11.994c0.674,2.406,2.792,3.984,5.16,4.004
				c0.481,0,0.943-0.078,1.309-0.154l35.192-9.414l22.14,12.764l-22.14,12.783l-35.077-9.375c-0.443-0.135-0.943-0.213-1.424-0.213
				c-2.33,0-4.505,1.58-5.198,4.006l-3.273,12.205c-0.077,0.404-0.154,0.867-0.154,1.387c-0.039,2.367,1.579,4.523,3.947,5.197
				l12.514,3.35l-17.673,10.186c-1.733,0.98-2.715,2.83-2.676,4.678c-0.039,0.865,0.193,1.828,0.712,2.715l6.276,10.896
				c1.02,1.752,2.849,2.715,4.697,2.715c0.943,0,1.81-0.252,2.599-0.674l17.75-10.242l-3.35,12.475
				c-0.116,0.404-0.192,0.885-0.192,1.387c0,2.406,1.617,4.523,3.985,5.197l12.225,3.273c0.52,0.154,1.021,0.174,1.348,0.174
				c2.407,0,4.505-1.561,5.236-3.947l9.356-35.096l22.14-12.803v27.145l-25.644,25.682c-1.059,1.059-1.579,2.465-1.579,3.793
				c0,1.348,0.52,2.771,1.541,3.773l8.991,8.971c1.02,1.041,2.445,1.598,3.792,1.58c1.348,0,2.753-0.539,3.754-1.58l9.145-9.105
				l0.039,18.789c0,2.984,2.368,5.373,5.371,5.373h12.591c3.003,0,5.41-2.389,5.41-5.373v-18.809l9.145,9.145
				c1.021,1.059,2.445,1.58,3.793,1.58c1.348,0.018,2.753-0.539,3.754-1.521l8.952-9.01c1.097-1.021,1.617-2.445,1.617-3.793
				c0-1.367-0.52-2.773-1.617-3.832l-25.644-25.643v-27.146l23.507,13.592l9.395,35.059c0.674,2.426,2.83,4.004,5.198,4.004
				c0.481,0,0.905-0.096,1.232-0.154l12.36-3.291c2.445-0.693,3.985-2.85,3.985-5.236c0-0.482-0.077-0.904-0.193-1.291
				l-3.311-12.551l16.249,9.395c0.905,0.48,1.848,0.73,2.714,0.73c1.887,0,3.639-1,4.659-2.656l6.314-10.992
				c0.481-0.904,0.712-1.83,0.712-2.695c0-1.811-0.943-3.658-2.714-4.66l-16.287-9.395l12.475-3.33
				c2.407-0.674,3.985-2.85,3.985-5.217c0-0.502-0.077-0.906-0.193-1.291l-3.196-12.32c-0.635-2.406-2.792-4.004-5.198-4.004
				c-0.385,0-0.943,0.037-1.54,0.25l-34.923,9.316l-23.506-13.553l23.506-13.572l35.077,9.414c0.481,0.135,0.982,0.154,1.386,0.154
				c2.406-0.02,4.505-1.578,5.198-3.967l3.273-12.225c0.154-0.52,0.193-0.943,0.193-1.348c0-2.406-1.579-4.562-3.947-5.217
				l-12.514-3.35l16.287-9.395C232.679,384.759,233.661,382.95,233.623,381.103z"/>
			<path d="M525.174,455.415l12.476-3.332c2.444-0.674,3.984-2.85,3.984-5.217c0-0.5-0.076-0.904-0.153-1.289l-3.254-12.283
				c-0.674-2.406-2.811-4.004-5.179-4.004c-0.424,0-0.943,0.037-1.579,0.25l-34.884,9.316l-23.507-13.553l23.507-13.572
				l35.038,9.414c0.52,0.135,0.982,0.154,1.425,0.154c2.368-0.02,4.467-1.578,5.179-3.967l3.272-12.225
				c0.116-0.52,0.154-0.943,0.154-1.348c0-2.406-1.579-4.562-3.946-5.217l-12.514-3.35l16.325-9.395
				c1.732-1.021,2.715-2.85,2.715-4.68c0-0.885-0.231-1.809-0.713-2.713l-6.314-10.916c-1.021-1.715-2.811-2.678-4.659-2.678
				c-0.904,0-1.887,0.213-2.811,0.791l-16.172,9.316l3.351-12.455c0.115-0.5,0.153-0.963,0.153-1.387
				c0-2.367-1.578-4.543-4.023-5.217l-12.147-3.273c-0.424-0.076-0.905-0.191-1.425-0.191c-2.368,0-4.544,1.598-5.198,4.023
				l-9.396,35.076l-23.506,13.535v-25.547l25.682-25.703c1.059-1.039,1.579-2.443,1.579-3.791c0-1.367-0.521-2.793-1.579-3.832
				l-8.913-8.895c-1.06-1.059-2.445-1.598-3.831-1.598c-1.348,0-2.772,0.52-3.832,1.656l-9.105,9.066v-20.387
				c0-2.965-2.368-5.352-5.371-5.371h-12.63c-2.965,0.02-5.333,2.406-5.333,5.371v20.387l-9.183-9.125
				c-1.021-1.059-2.445-1.598-3.793-1.598s-2.791,0.539-3.831,1.656l-8.913,8.875c-1.06,1.059-1.541,2.445-1.541,3.793
				s0.481,2.771,1.541,3.791l25.682,25.703v25.547l-22.14-12.764l-9.356-35.078c-0.674-2.406-2.811-3.984-5.198-3.984
				c-0.442,0-1.021,0.02-1.694,0.27l-11.955,3.156c-2.368,0.674-3.985,2.811-3.985,5.219c0,0.404,0.039,0.98,0.231,1.539
				l3.311,12.34l-17.673-10.184c-0.789-0.48-1.771-0.73-2.676-0.73c-1.81,0-3.678,0.924-4.697,2.752l-6.315,10.857
				c-0.442,0.848-0.712,1.771-0.674,2.695c-0.038,1.867,0.943,3.678,2.677,4.66l17.673,10.184l-12.476,3.35
				c-2.406,0.693-3.946,2.83-3.984,5.217c0,0.443,0.038,0.963,0.23,1.6l3.196,11.992c0.712,2.408,2.811,3.986,5.256,4.006
				c0.462,0,0.866-0.078,1.251-0.154l35.192-9.414l22.14,12.764l-22.14,12.783l-35.077-9.375c-0.404-0.135-0.904-0.213-1.348-0.213
				c-2.444,0-4.582,1.58-5.256,4.006l-3.195,12.205c-0.192,0.404-0.192,0.865-0.192,1.387c-0.039,2.367,1.54,4.523,3.946,5.197
				l12.476,3.35l-17.674,10.184c-1.693,0.982-2.714,2.83-2.676,4.68c-0.038,0.865,0.192,1.828,0.713,2.715l6.314,10.896
				c0.981,1.732,2.811,2.713,4.659,2.713c0.942,0,1.848-0.25,2.637-0.674l17.712-10.24l-3.35,12.475
				c-0.115,0.404-0.192,0.885-0.192,1.387c0,2.406,1.617,4.523,3.985,5.197l12.187,3.273c0.558,0.154,1.02,0.172,1.424,0.172
				c2.368,0,4.505-1.559,5.218-3.945l9.395-35.098l22.102-12.803v27.146l-25.682,25.682c-1.06,1.059-1.541,2.465-1.541,3.793
				c0,1.348,0.481,2.771,1.541,3.773l8.952,8.971c1.059,1.041,2.444,1.598,3.792,1.58c1.348,0,2.792-0.539,3.793-1.58l9.145-9.105
				v18.789c0.038,2.984,2.368,5.371,5.371,5.371h12.63c3.003,0,5.332-2.387,5.371-5.371v-18.809l9.145,9.145
				c1.059,1.059,2.445,1.598,3.793,1.578c1.386,0,2.791-0.539,3.792-1.559l8.952-8.971c1.06-1.021,1.579-2.445,1.579-3.793
				c0-1.367-0.52-2.773-1.617-3.832l-25.644-25.643v-27.146l23.507,13.592l9.395,35.059c0.674,2.426,2.83,4.004,5.236,4.004
				c0.443,0,0.866-0.096,1.232-0.154l12.341-3.291c2.444-0.693,3.984-2.85,3.984-5.236c0-0.482-0.076-0.906-0.153-1.291
				l-3.351-12.551l16.288,9.395c0.827,0.48,1.81,0.73,2.714,0.73c1.849,0,3.619-1,4.621-2.656l6.353-10.992
				c0.481-0.906,0.713-1.83,0.713-2.695c0-1.811-0.982-3.658-2.715-4.66L525.174,455.415z"/>
			<path d="M499.049,168.849c-10.936-78.394-77.682-138.807-158.867-139.75c-0.385-0.02-1.097-0.096-1.925-0.096
				c-71.482,0-132.049,46.166-153.785,110.294c-39.293,9.395-71.329,37.06-86.672,73.581C43.278,215.862,0,260.834,0,316.087
				c0,32.018,14.555,60.549,37.368,79.473c0.077-0.115,0.115-0.289,0.154-0.404c-4.023-3.619-6.392-8.74-6.353-14.15
				c0-3.234,0.905-6.525,2.599-9.355l6.199-10.762c3.234-5.795,9.472-9.434,16.21-9.434c2.079,0,4.101,0.346,6.006,0.98
				c2.445-4.119,6.469-7.354,11.397-8.643l11.589-3.1c1.463-0.502,3.003-0.771,4.582-0.828c0.712-1.156,1.579-2.176,2.522-3.139
				l8.914-8.875c3.234-3.426,8.163-5.506,13.246-5.545c1.732-8.51,9.26-14.996,18.27-15.035h12.668
				c9.067,0.039,16.653,6.525,18.385,15.035c4.852,0.039,9.665,2.002,13.168,5.43l8.952,8.951c0.751,0.752,1.425,1.521,2.021,2.389
				c0.347,0,0.635-0.02,0.982-0.02c1.617,0,3.234,0.23,4.852,0.635l12.187,3.273c5.005,1.309,9.145,4.658,11.551,9.029
				c1.425-0.367,2.927-0.539,4.467-0.539c6.661,0,12.86,3.58,16.21,9.336l6.315,10.936c1.694,2.926,2.522,6.143,2.522,9.357
				c0.038,4.852-1.887,9.549-5.217,13.014c1.771,2.85,2.676,6.141,2.676,9.645c0,1.617-0.154,3.197-0.558,4.775l-3.003,11.07
				h108.176l-2.637-9.818c-0.481-1.715-0.751-3.486-0.751-5.275c0-3.408,0.904-6.604,2.483-9.338
				c-4.023-3.619-6.392-8.74-6.392-14.15c-0.039-3.002,0.827-6.295,2.521-9.221l6.315-10.916c3.195-5.756,9.433-9.395,16.21-9.395
				c2.079,0,4.139,0.346,6.103,1c2.406-4.197,6.43-7.393,11.281-8.662l11.609-3.1c1.463-0.482,2.965-0.752,4.543-0.809
				c0.713-1.156,1.541-2.176,2.522-3.139l8.914-8.875c3.272-3.428,8.124-5.506,13.245-5.545c1.694-8.51,9.279-14.998,18.309-15.035
				h12.668c9.105,0.037,16.652,6.525,18.385,15.035c4.929,0.039,9.588,1.963,13.169,5.43l8.913,8.951
				c0.751,0.752,1.425,1.521,2.061,2.387c0.308,0,0.635-0.018,0.981-0.018c1.579,0,3.234,0.23,4.813,0.635l12.187,3.273
				c5.082,1.309,9.145,4.658,11.551,9.027c1.463-0.365,2.965-0.539,4.505-0.539c6.623,0,12.86,3.582,16.21,9.338l6.315,10.916
				c1.693,2.945,2.483,6.16,2.483,9.375c0,4.891-1.887,9.568-5.198,13.016c0.981,1.598,1.617,3.389,2.06,5.217
				c34.673-22.332,57.603-61.184,57.603-105.52C612,228.703,562.484,175.279,499.049,168.849z"/>
		</g>
	</g>
</g>
<g>
</g>
<g>
</g>
<g>
</g>
<g>
</g>
<g>
</g>
<g>
</g>
<g>
</g>
<g>
</g>
<g>
</g>
<g>
</g>
<g>
</g>
<g>
</g>
<g>
</g>
<g>
</g>
<g>
</g>
</svg>
